<svg id="dots-triangle" width="170" height="170" xmlns="http://www.w3.org/2000/svg"><path d="M168.152 170a1.848 1.848 0 1 1 0-3.696 1.848 1.848 0 0 1 0 3.696zm-18.478-18.478a1.848 1.848 0 1 1 0-3.696 1.848 1.848 0 0 1 0 3.696zm0 18.478a1.848 1.848 0 1 1 0-3.696 1.848 1.848 0 0 1 0 3.696zm-18.478 0a1.848 1.848 0 1 1 0-3.696 1.848 1.848 0 0 1 0 3.696zm0-18.478a1.848 1.848 0 1 1 0-3.696 1.848 1.848 0 0 1 0 3.696zm0-18.479a1.848 1.848 0 1 1 0-3.695 1.848 1.848 0 0 1 0 3.695zm-18.479 0a1.848 1.848 0 1 1 0-3.695 1.848 1.848 0 0 1 0 3.695zm0 18.479a1.848 1.848 0 1 1 0-3.696 1.848 1.848 0 0 1 0 3.696zm0 18.478a1.848 1.848 0 1 1 0-3.696 1.848 1.848 0 0 1 0 3.696zm0-55.435a1.848 1.848 0 1 1 0-3.695 1.848 1.848 0 0 1 0 3.695zM94.24 133.043a1.848 1.848 0 1 1 0-3.695 1.848 1.848 0 0 1 0 3.695zm0 18.479a1.848 1.848 0 1 1 0-3.696 1.848 1.848 0 0 1 0 3.696zm0 18.478a1.848 1.848 0 1 1 0-3.696 1.848 1.848 0 0 1 0 3.696zm0-55.435a1.848 1.848 0 1 1 0-3.695 1.848 1.848 0 0 1 0 3.695zm0-18.478a1.848 1.848 0 1 1 0-3.696 1.848 1.848 0 0 1 0 3.696zm-18.478 36.956a1.848 1.848 0 1 1 0-3.695 1.848 1.848 0 0 1 0 3.695zm0 18.479a1.848 1.848 0 1 1 0-3.696 1.848 1.848 0 0 1 0 3.696zm0 18.478a1.848 1.848 0 1 1 0-3.696 1.848 1.848 0 0 1 0 3.696zm0-55.435a1.848 1.848 0 1 1 0-3.695 1.848 1.848 0 0 1 0 3.695zm0-18.478a1.848 1.848 0 1 1 0-3.696 1.848 1.848 0 0 1 0 3.696zm0-18.478a1.848 1.848 0 1 1 0-3.696 1.848 1.848 0 0 1 0 3.696zm-18.478 55.434a1.848 1.848 0 1 1 0-3.695 1.848 1.848 0 0 1 0 3.695zm0 18.479a1.848 1.848 0 1 1 0-3.696 1.848 1.848 0 0 1 0 3.696zm0 18.478a1.848 1.848 0 1 1 0-3.696 1.848 1.848 0 0 1 0 3.696zm0-55.435a1.848 1.848 0 1 1 0-3.695 1.848 1.848 0 0 1 0 3.695zm0-18.478a1.848 1.848 0 1 1 0-3.696 1.848 1.848 0 0 1 0 3.696zm0-18.478a1.848 1.848 0 1 1 0-3.696 1.848 1.848 0 0 1 0 3.696zm0-18.479a1.848 1.848 0 1 1 0-3.695 1.848 1.848 0 0 1 0 3.695zm-18.479 73.913a1.848 1.848 0 1 1 0-3.695 1.848 1.848 0 0 1 0 3.695zm0 18.479a1.848 1.848 0 1 1 0-3.696 1.848 1.848 0 0 1 0 3.696zm0 18.478a1.848 1.848 0 1 1 0-3.696 1.848 1.848 0 0 1 0 3.696zm0-55.435a1.848 1.848 0 1 1 0-3.695 1.848 1.848 0 0 1 0 3.695zm0-18.478a1.848 1.848 0 1 1 0-3.696 1.848 1.848 0 0 1 0 3.696zm0-18.478a1.848 1.848 0 1 1 0-3.696 1.848 1.848 0 0 1 0 3.696zm0-18.479a1.848 1.848 0 1 1 0-3.695 1.848 1.848 0 0 1 0 3.695zm0-18.478a1.848 1.848 0 1 1 0-3.695 1.848 1.848 0 0 1 0 3.695zm-18.478 92.391a1.848 1.848 0 1 1 0-3.695 1.848 1.848 0 0 1 0 3.695zm0 18.479a1.848 1.848 0 1 1 0-3.696 1.848 1.848 0 0 1 0 3.696zm0 18.478a1.848 1.848 0 1 1 0-3.696 1.848 1.848 0 0 1 0 3.696zm0-55.435a1.848 1.848 0 1 1 0-3.695 1.848 1.848 0 0 1 0 3.695zm0-18.478a1.848 1.848 0 1 1 0-3.696 1.848 1.848 0 0 1 0 3.696zm0-18.478a1.848 1.848 0 1 1 0-3.696 1.848 1.848 0 0 1 0 3.696zm0-18.479a1.848 1.848 0 1 1 0-3.695 1.848 1.848 0 0 1 0 3.695zm0-18.478a1.848 1.848 0 1 1 0-3.695 1.848 1.848 0 0 1 0 3.695zm0-18.478a1.848 1.848 0 1 1 0-3.696 1.848 1.848 0 0 1 0 3.696zM1.848 133.044a1.848 1.848 0 1 1 0-3.696 1.848 1.848 0 0 1 0 3.695zm0 18.478a1.848 1.848 0 1 1 0-3.696 1.848 1.848 0 0 1 0 3.696zm0 18.478a1.848 1.848 0 1 1 0-3.696 1.848 1.848 0 0 1 0 3.696zm0-55.435a1.848 1.848 0 1 1 0-3.695 1.848 1.848 0 0 1 0 3.695zm0-18.478a1.848 1.848 0 1 1 0-3.696 1.848 1.848 0 0 1 0 3.696zm0-18.478a1.848 1.848 0 1 1 0-3.696 1.848 1.848 0 0 1 0 3.696zm0-18.479a1.848 1.848 0 1 1 0-3.695 1.848 1.848 0 0 1 0 3.695zm0-18.478a1.848 1.848 0 1 1 0-3.695 1.848 1.848 0 0 1 0 3.695zm0-18.478a1.848 1.848 0 1 1 0-3.696 1.848 1.848 0 0 1 0 3.696zm0-18.478a1.848 1.848 0 1 1 0-3.696 1.848 1.848 0 0 1 0 3.696z" fill="#4f46e5" fill-rule="evenodd" opacity=".503"/></svg>
